<?xml version="1.0" encoding="UTF-8"?>
<svg id="Layer_1" data-name="Layer 1" xmlns="http://www.w3.org/2000/svg" viewBox="0 0 1064 1064">
  <defs>
    <style>
      .cls-1 {
        fill: #8bc8ea;
      }

      .cls-2 {
        fill: #13314c;
      }

      .cls-3 {
        fill: #1e4579;
      }

      .cls-4 {
        fill: #dfeaf4;
      }

      .cls-5 {
        fill: #e9eff4;
      }

      .cls-6 {
        fill: #fff;
        stroke: #1e4579;
        stroke-miterlimit: 10;
      }
    </style>
  </defs>
  <g>
    <rect class="cls-4" x="5" y="5" width="1054" height="1054" rx="133.79" ry="133.79"/>
    <path class="cls-2" d="M925.21,10c34.4,0,66.74,13.4,91.07,37.72s37.72,56.67,37.72,91.07v786.42c0,34.4-13.4,66.74-37.72,91.07-24.32,24.33-56.67,37.72-91.07,37.72H138.79c-34.4,0-66.74-13.4-91.07-37.72s-37.72-56.67-37.72-91.07V138.79c0-34.4,13.4-66.74,37.72-91.07S104.39,10,138.79,10h786.42M925.21,0H138.79C62.14,0,0,62.14,0,138.79v786.42C0,1001.86,62.14,1064,138.79,1064h786.42c76.65,0,138.79-62.14,138.79-138.79V138.79C1064,62.14,1001.86,0,925.21,0h0Z"/>
  </g>
  <circle class="cls-5" cx="532.28" cy="458.45" r="327.72"/>
  <path class="cls-6" d="M694.01,584.78h98.79c51.92,0,94.07,42.15,94.07,94.07v131.72h-192.86v-225.79h0Z"/>
  <g>
    <path class="cls-1" d="M774.29,189.99l-43.66,55.72c2.81,2.6,5.59,5.25,8.32,7.97,26.9,26.9,48.01,58.21,62.75,93.05,15.24,36.03,22.97,74.36,22.97,113.9h70.6c0-107.52-46.73-204.12-120.97-270.63Z"/>
    <path class="cls-1" d="M569.22,167.96l-2.33,2.06c27.22,3.21,53.67,10.2,79,20.91,20.3,8.59,39.4,19.36,57.13,32.16l45.34-54.27c-54.36-40.37-120.4-65.9-192.12-70.63l50.21,36.4-37.22,33.37Z"/>
    <path class="cls-3" d="M832.6,559.13c20.95,9.67,40.81,25.54,40.88,25.65,14.09-38.74,21.78-80.55,21.78-124.16h-70.6c0,31.3-4.86,61.83-14.44,91.08,4.79-.2,14.04,3.58,22.38,7.43Z"/>
    <path class="cls-3" d="M645.9,730.31c-36.04,15.24-74.36,22.97-113.9,22.97s-77.86-7.73-113.9-22.97c-34.84-14.74-66.15-35.85-93.05-62.75-26.9-26.9-48.01-58.21-62.75-93.05-15.24-36.04-22.97-74.36-22.97-113.9s7.73-77.86,22.97-113.9c14.74-34.84,35.85-66.15,62.75-93.05,26.9-26.9,58.21-48.01,93.05-62.75,9.27-3.92,18.71-7.33,28.27-10.25v50.18l77.8-62.77c.61-.02,1.22-.04,1.84-.05l38.09-32.16-58.48-37.55-59.49-38.2.25,47.42c-159.3,38.5-277.63,181.96-277.63,353.08,0,200.62,162.64,363.26,363.26,363.26,44.71,0,87.52-8.1,127.08-22.87v-76.66c-4.34,2.09-8.73,4.08-13.18,5.96Z"/>
    <g>
      <path class="cls-1" d="M531.44,218.64h-1.23c-6.77,0-12.27,5.49-12.27,12.27v44.43c0,7.43,5.81,13.81,13.25,13.94,7.57.14,13.75-5.96,13.75-13.5v-29.72c107.81,6.72,194.35,93.26,201.06,201.06h-32.57c-7.43,0-13.81,5.81-13.94,13.25s5.96,13.75,13.5,13.75h46.93c7.46,0,13.5-6.04,13.5-13.5h0c0-133.64-108.34-241.98-241.98-241.98Z"/>
      <path class="cls-3" d="M531.19,625.54c-7.43.14-13.25,6.51-13.25,13.94v35.7c-107.81-6.72-194.33-93.26-201.05-201.06h31.11c7.43,0,13.81-5.81,13.94-13.25.14-7.57-5.96-13.75-13.5-13.75h-31.57c4.32-70.76,45.24-133.69,104.29-169.28.87-.52,3.6-1.27,3.6-1.27l-10.86-26.71s-4.78,1.91-6.96,3.22c-35.16,21.13-64.6,51.07-85.13,86.58-21.17,36.61-32.36,78.44-32.36,120.96,0,133.43,108.55,241.98,241.98,241.98h0c7.46,0,13.5-6.04,13.5-13.5v-50.06c0-7.54-6.18-13.64-13.75-13.5Z"/>
      <path class="cls-2" d="M544.94,431.51v-106.2c0-7.46-6.04-13.5-13.5-13.5s-13.5,6.04-13.5,13.5v106.2c-10.98,5.1-18.59,16.21-18.59,29.11,0,3.74.65,7.34,1.83,10.68l-63.32,61.81c-5.33,5.21-5.44,13.75-.23,19.09,2.64,2.71,6.15,4.07,9.66,4.07s6.8-1.28,9.43-3.84l63.32-61.81c3.54,1.35,7.39,2.09,11.4,2.09,17.72,0,32.09-14.37,32.09-32.09,0-12.9-7.61-24.01-18.59-29.11Z"/>
    </g>
    <path class="cls-3" d="M891.96,637.67l-63.16-64.34h-113.63c-15.69,0-28.4,12.76-28.4,28.5v190.78c0,17.27,13.95,31.27,31.16,31.27h148.13c16.13,0,29.21-13.12,29.21-29.31v-148.81c0-3.02-1.19-5.93-3.3-8.08ZM872.87,790.81c0,4.92-3.99,8.9-8.9,8.9h-144.35c-5.39,0-9.75-4.37-9.75-9.75v-184.73c0-4.39,3.56-7.95,7.95-7.95h97.19l1.19,40.05c.28,9.57,8.13,17.19,17.7,17.19h38.98v136.3Z"/>
    <path class="cls-3" d="M826.24,686.27l-43.39,42.64c-1.69,1.66-4.4,1.7-6.13.07l-17.29-16.2c-1.77-1.66-4.52-1.69-6.33-.06l-9.74,8.79c-2.42,2.18-2.51,5.94-.2,8.23l32.27,32.1c2.53,2.52,6.64,2.47,9.11-.11l57.06-59.5c1.71-1.79,1.67-4.61-.09-6.35l-9.76-9.63c-1.53-1.51-3.98-1.51-5.51,0Z"/>
    <path class="cls-3" d="M749.14,520.21c-2.03-1.79-5.01-1.95-7.22-.4l-12.47,8.75s-.01,0-.02,0c-7.78-4.65-16.33-8.15-25.41-10.3,0,0,0-.02,0-.02l-3.27-14.05c-1.12-4.82-5.41-8.22-10.36-8.22h-16.76c-5.16,0-9.58,3.71-10.47,8.79l-2.45,13.9c-8.46,2.17-16.44,5.55-23.75,9.93l-16.85-9.81c-2.08-1.21-4.71-.91-6.47.75l-17.45,16.48c-1.85,1.75-2.24,4.54-.94,6.73l10.34,17.37c-4.01,6.77-7.15,14.1-9.3,21.86l-19.32,4.61c-2.87.68-4.89,3.25-4.89,6.2v23.28c0,2.92,1.99,5.47,4.83,6.18l18.57,4.64c1.96,8.3,5.07,16.14,9.15,23.38l-10.33,15.21c-1.7,2.51-1.39,5.87.74,8.03l17.34,17.49c2.18,2.2,5.64,2.5,8.17.71l13.87-9.83c3.43,2.21,7.02,4.2,10.75,5.94,4.98,2.32,10.2,4.21,15.62,5.6l.73-39.63c-18.88-8.2-32.17-26.85-32.54-48.65-.52-30.24,24.82-54.99,55.07-54.99h69.92s12.27,0,12.27,0l3.12-7.17c.92-2.11.37-4.57-1.35-6.09l-18.88-16.66Z"/>
  </g>
  <g>
    <path class="cls-2" d="M138.38,907.58h-32.23v-17.69h86.58v17.69h-32.11v73.87h-22.24v-73.87Z"/>
    <path class="cls-2" d="M203.91,884.65h21.24v16.97h-21.24v-16.97ZM203.91,914.27h21.24v67.18h-21.24v-67.18Z"/>
    <path class="cls-2" d="M243.05,931.62c0-5.82,0-11.52-.13-17.34h20.31c.37,2.62.5,5.52.6,7.94,3.48-4.85,9.85-9.76,20.45-9.76,11.87,0,17.62,5.2,20.27,11,3.51-4.97,9.73-11,22.62-11,14.07,0,25.14,8.39,25.14,28.42v40.58h-20.9v-40.07c0-5.85-2.04-12.88-10.86-12.88-7.63,0-12.25,4.79-12.25,15.86v37.09h-21.01v-40.17c0-6.63-2.4-12.79-10.87-12.79s-12.35,6.21-12.35,15.91v37.04h-21.01v-49.83Z"/>
    <path class="cls-2" d="M387.48,953.03c.55,8.12,6.44,14.46,16.5,14.46,8.02,0,11.81-2.45,14.25-6.58h21.24c-4.05,11.9-14.15,22.36-35.72,22.36-27.5,0-37.42-18.24-37.42-35.32,0-18.92,12.72-35.5,37.26-35.5,26.14,0,36.69,18,36.69,35.5,0,1.7,0,2.92-.11,5.07h-52.69ZM418.74,940.02c-.42-5.13-3.19-12.7-15.16-12.7-11.16,0-15.21,6.09-15.84,12.7h31Z"/>
    <path class="cls-2" d="M464.8,907.58h-32.23v-17.69h86.58v17.69h-32.11v73.87h-22.24v-73.87Z"/>
    <path class="cls-2" d="M520.72,932.53c0-6.08,0-12.17-.13-18.25h20.75c.36,2.38.62,9.81.62,13.43,3.75-8.84,11.96-15.47,25.9-15.13v19.33c-15.2-.24-25.9,5.85-25.9,25.01v24.54h-21.24v-48.92Z"/>
    <path class="cls-2" d="M643.64,962.62c0,8.73.39,17.38.54,18.83h-20.07c-.52-1.6-.67-5.7-.78-7.59-3.61,5.81-11.35,9.41-23.98,9.41-18.38,0-25.79-11.2-25.79-21.93,0-17.64,15.44-22.53,35.24-22.53h14.07v-2.12c0-5.44-2.37-9.84-12.22-9.84-9.18,0-11.2,3.44-12.08,7.29h-21.24c.57-8.28,6.42-21.69,32.99-21.69,29.17,0,33.32,13.74,33.32,24.97v25.2ZM622.87,952.24c-1.54-.11-6.17-.11-13.7-.11-10.8,0-15.04,2.84-15.04,8.14,0,4.37,3.53,7.91,11.23,7.91,11.65,0,17.51-5.33,17.51-14.89v-1.04Z"/>
    <path class="cls-2" d="M730.48,958.76c-2.71,12.7-13.63,24.51-35.67,24.51-25.86,0-37.27-16.27-37.27-35.53,0-18.18,12.95-35.28,37.3-35.28,26.61,0,34.39,17.37,35.18,24.8h-21.24c-1.26-3.65-4.52-8.9-13.76-8.9-11.01,0-15.87,8.14-15.87,19.24s4.58,19.67,15.77,19.67c7.66,0,11.59-2.79,14.31-8.5h21.24Z"/>
    <path class="cls-2" d="M764.92,943.27c6.69-7.11,20.23-20.14,28.77-29h25.03l-28.29,25.71,31.21,41.47h-25.67l-20.53-29.62-10.53,9.13v20.5h-21.24v-96.8h21.24v58.62Z"/>
    <path class="cls-2" d="M844.17,953.03c.55,8.12,6.44,14.46,16.5,14.46,8.02,0,11.81-2.45,14.25-6.58h21.24c-4.05,11.9-14.15,22.36-35.72,22.36-27.5,0-37.42-18.24-37.42-35.32,0-18.92,12.72-35.5,37.26-35.5,26.14,0,36.69,18,36.69,35.5,0,1.7,0,2.92-.11,5.07h-52.69ZM875.43,940.02c-.42-5.13-3.19-12.7-15.16-12.7-11.16,0-15.21,6.09-15.84,12.7h31Z"/>
    <path class="cls-2" d="M910.71,932.53c0-6.08,0-12.17-.13-18.25h20.75c.36,2.38.62,9.81.62,13.43,3.75-8.84,11.96-15.47,25.9-15.13v19.33c-15.2-.24-25.9,5.85-25.9,25.01v24.54h-21.24v-48.92Z"/>
  </g>
</svg>